<svg xmlns="http://www.w3.org/2000/svg" width="512" height="512" viewBox="0 0 512 512" role="img" aria-labelledby="logo-title">
  <title id="logo-title">Jira Dev Workflow — tickets to Git</title>

  <!-- Opaque 1:1 plate so the mark stays visible on a dark marketplace UI -->
  <rect width="512" height="512" fill="#FFFFFF"/>

  <!-- Rounded app plate -->
  <rect x="36" y="36" width="440" height="440" rx="100" fill="#F2F6FB" stroke="#E4EDF6" stroke-width="2"/>

  <!-- Icon scaled up into the upper plate so the wordmark has room -->
  <g transform="translate(256 188) scale(0.58) translate(-256 -248)">
    <circle cx="256" cy="248" r="200" fill="none" stroke="#D7E5F5" stroke-width="18"/>
    <path d="M256 48 A200 200 0 0 1 456 248" fill="none" stroke="#1B6FD6" stroke-width="18" stroke-linecap="round"/>

    <rect x="134" y="144" width="152" height="192" rx="26" fill="#12283F"/>
    <path d="M134 170h152v18H134z" fill="#1B6FD6"/>
    <path d="M160 144h100a26 26 0 0 1 26 26v0H134v0a26 26 0 0 1 26-26z" fill="#1B6FD6"/>
    <rect x="156" y="210" width="100" height="14" rx="7" fill="#9EC4E8"/>
    <rect x="156" y="238" width="78" height="14" rx="7" fill="#4E7394"/>
    <rect x="156" y="266" width="88" height="14" rx="7" fill="#4E7394"/>
    <circle cx="170" cy="308" r="11" fill="#2F9E62"/>
    <path d="M164 308l4 4 8-9" fill="none" stroke="#FFFFFF" stroke-width="3" stroke-linecap="round" stroke-linejoin="round"/>

    <rect x="230" y="194" width="172" height="144" rx="24" fill="#0B1F36"/>
    <path d="M230 218h172v16H230z" fill="#16344F"/>
    <path d="M254 194h124a24 24 0 0 1 24 24v0H230v0a24 24 0 0 1 24-24z" fill="#16344F"/>
    <circle cx="254" cy="214" r="6" fill="#E08A3C"/>
    <circle cx="274" cy="214" r="6" fill="#E0C14A"/>
    <circle cx="294" cy="214" r="6" fill="#2F9E62"/>
    <path d="M278 246l-26 22 26 22" fill="none" stroke="#4BA3FF" stroke-width="11" stroke-linecap="round" stroke-linejoin="round"/>
    <path d="M354 246l26 22-26 22" fill="none" stroke="#4BA3FF" stroke-width="11" stroke-linecap="round" stroke-linejoin="round"/>
    <path d="M328 240l-22 56" fill="none" stroke="#3DCF7A" stroke-width="11" stroke-linecap="round"/>

    <circle cx="115" cy="389" r="22" fill="#FFFFFF" stroke="#1B6FD6" stroke-width="8"/>
    <circle cx="256" cy="448" r="22" fill="#FFFFFF" stroke="#E08A3C" stroke-width="8"/>
    <circle cx="397" cy="389" r="22" fill="#FFFFFF" stroke="#2F9E62" stroke-width="8"/>
  </g>

  <text x="256" y="368" text-anchor="middle" font-family="Arial, Helvetica, sans-serif" font-size="34" font-weight="700" fill="#12283F">Jira Dev Workflow</text>
  <text x="256" y="402" text-anchor="middle" font-family="Arial, Helvetica, sans-serif" font-size="18" font-weight="600" fill="#1B6FD6" letter-spacing="1.2">Tickets to Git</text>
</svg>
